<?xml version="1.0" encoding="UTF-8"?>
<svg id="Layer_1" data-name="Layer 1" xmlns="http://www.w3.org/2000/svg" viewBox="0 0 799.1 168.69">
  <g>
    <path d="m0,42.17h61.15v16.25H18.73v17.86h40.68v15.75H18.73v18.23h42.05v16.25H0V42.17Z" fill="#fff"/>
    <path d="m74.92,42.17h37.95c9.68,0,17.2,2.27,22.58,6.82,5.38,4.55,8.06,11.62,8.06,21.21,0,6.2-1.28,11.37-3.84,15.5-2.56,4.14-6.18,7.18-10.85,9.12-4.67,1.94-10.32,2.92-16.93,2.92h-18.23v28.78h-18.73V42.17Zm46.2,36.84c2.19-1.9,3.29-4.84,3.29-8.81,0-4.22-1.05-7.26-3.16-9.12s-5.69-2.79-10.73-2.79h-16.87v23.57h16.87c4.88,0,8.41-.95,10.61-2.85Zm-16.81,10.42h20.34l22.33,37.09h-21.09l-21.58-37.09Z" fill="#fff"/>
    <path d="m157.53,42.17h18.73v84.34h-18.73V42.17Z" fill="#fff"/>
    <path d="m192.25,42.17h19.72l41.3,59.29h-2.23v-59.29h18.23v84.34h-20.09l-40.93-58.67h2.23v58.67h-18.23V42.17Z" fill="#fff"/>
    <path d="m285.41,42.17h19.72l41.3,59.29h-2.23v-59.29h18.23v84.34h-20.09l-40.93-58.67h2.23v58.67h-18.23V42.17Z" fill="#fff"/>
  </g>
  <g>
    <path d="m450.28,113.43c-4.45-2.72-7.87-6.57-10.23-11.56-2.37-4.99-3.55-10.83-3.55-17.53s1.2-12.54,3.6-17.53c2.4-4.99,5.83-8.84,10.28-11.56,4.45-2.72,9.71-4.07,15.78-4.07,7.2,0,13.09,1.74,17.67,5.21,4.58,3.47,7.56,8.37,8.95,14.69l-5.5.95c-1.26-4.86-3.65-8.68-7.15-11.46s-8.16-4.17-13.98-4.17c-5.12,0-9.46,1.18-13.03,3.55s-6.25,5.65-8.05,9.85-2.7,9.05-2.7,14.54.91,10.44,2.75,14.64c1.83,4.2,4.53,7.47,8.1,9.81,3.57,2.34,7.88,3.5,12.93,3.5,5.81,0,10.48-1.39,14.02-4.17,3.54-2.78,5.94-6.6,7.2-11.46l5.4.95c-1.39,6.38-4.38,11.29-8.95,14.73-4.58,3.44-10.47,5.16-17.67,5.16-6.13,0-11.42-1.36-15.87-4.07Z" fill="#c6c6c6"/>
    <path d="m523.19,52.13h7.2l25.49,64.43h-6.25l-23.78-61.02h1.71l-23.5,61.02h-6.16l25.3-64.43Zm-13.93,39.8h34.77v5.21h-34.77v-5.21Z" fill="#c6c6c6"/>
    <path d="m565.45,52.13h24.44c7.26,0,12.65,1.63,16.16,4.88,3.51,3.25,5.26,8.1,5.26,14.54,0,4.17-.79,7.71-2.37,10.61-1.58,2.91-3.95,5.12-7.11,6.63-3.16,1.52-7.14,2.27-11.94,2.27h-18.57v25.49h-5.87V52.13Zm36.19,30.08c2.53-2.37,3.79-5.92,3.79-10.66s-1.25-8.43-3.74-10.71c-2.49-2.27-6.52-3.41-12.08-3.41h-18.29v28.33h18.29c5.49,0,9.51-1.18,12.03-3.55Z" fill="#c6c6c6"/>
    <path d="m622.21,52.13h5.87v64.43h-5.87V52.13Z" fill="#c6c6c6"/>
    <path d="m661.43,57.43h-24.73v-5.31h55.14v5.31h-24.63v59.12h-5.78v-59.12Z" fill="#c6c6c6"/>
    <path d="m712.41,52.13h7.2l25.49,64.43h-6.25l-23.78-61.02h1.71l-23.5,61.02h-6.16l25.3-64.43Zm-13.93,39.8h34.77v5.21h-34.77v-5.21Z" fill="#c6c6c6"/>
    <path d="m754.66,52.13h5.87v59.12h38.56v5.31h-44.44V52.13Z" fill="#c6c6c6"/>
  </g>
  <rect x="396.63" width="5.15" height="168.69" fill="#1a30c3"/>
</svg>